<mxfile host="app.diagrams.net" modified="2023-01-08T17:33:59.641Z" agent="5.0 (Macintosh; Intel Mac OS X 10_15_7) AppleWebKit/605.1.15 (KHTML, like Gecko) Version/15.6.1 Safari/605.1.15" etag="7FP7XLanVUw3zjBQiI12" version="20.8.1" type="github" pages="2">
  <diagram id="a-20mZiOIAOLTIz4m4ay" name="Page-1">
    <mxGraphModel dx="772" dy="534" grid="1" gridSize="10" guides="1" tooltips="1" connect="1" arrows="1" fold="1" page="1" pageScale="1" pageWidth="850" pageHeight="1100" math="0" shadow="0">
      <root>
        <mxCell id="0" />
        <mxCell id="1" parent="0" />
        <mxCell id="T1z2pmbtqpx1YtOUBb7M-1" value="&#xa;patients" style="swimlane;childLayout=stackLayout;horizontal=1;startSize=30;horizontalStack=0;rounded=1;fontSize=14;fontStyle=0;strokeWidth=2;resizeParent=0;resizeLast=1;shadow=0;dashed=0;align=center;" parent="1" vertex="1">
          <mxGeometry x="150" y="70" width="160" height="120" as="geometry" />
        </mxCell>
        <mxCell id="T1z2pmbtqpx1YtOUBb7M-2" value="&#xa;patientId (string)&#xa;age(string)" style="align=left;strokeColor=none;fillColor=none;spacingLeft=4;fontSize=12;verticalAlign=top;resizable=0;rotatable=0;part=1;" parent="T1z2pmbtqpx1YtOUBb7M-1" vertex="1">
          <mxGeometry y="30" width="160" height="90" as="geometry" />
        </mxCell>
        <mxCell id="T1z2pmbtqpx1YtOUBb7M-7" value="diagnostic measure" style="swimlane;childLayout=stackLayout;horizontal=1;startSize=30;horizontalStack=0;rounded=1;fontSize=14;fontStyle=0;strokeWidth=2;resizeParent=0;resizeLast=1;shadow=0;dashed=0;align=center;" parent="1" vertex="1">
          <mxGeometry x="450" y="70" width="190" height="190" as="geometry" />
        </mxCell>
        <mxCell id="T1z2pmbtqpx1YtOUBb7M-8" value="diagnosticMeasureId (string)&#xa;glucose (string)&#xa;blood pressure (string)&#xa;skin thickness (string)&#xa;insulin (string)&#xa;DPF (string)&#xa;Pregnancies (string)&#xa;BMI  (string)&#xa;age (string)&#xa;diabetesPedigreeFunction(string)" style="align=left;strokeColor=none;fillColor=none;spacingLeft=4;fontSize=12;verticalAlign=top;resizable=0;rotatable=0;part=1;" parent="T1z2pmbtqpx1YtOUBb7M-7" vertex="1">
          <mxGeometry y="30" width="190" height="160" as="geometry" />
        </mxCell>
        <mxCell id="T1z2pmbtqpx1YtOUBb7M-9" value="outcome" style="swimlane;childLayout=stackLayout;horizontal=1;startSize=30;horizontalStack=0;rounded=1;fontSize=14;fontStyle=0;strokeWidth=2;resizeParent=0;resizeLast=1;shadow=0;dashed=0;align=center;" parent="1" vertex="1">
          <mxGeometry x="240" y="320" width="160" height="120" as="geometry" />
        </mxCell>
        <mxCell id="T1z2pmbtqpx1YtOUBb7M-10" value="1 (yes (string)&#xa;0 (no) (string)" style="align=left;strokeColor=none;fillColor=none;spacingLeft=4;fontSize=12;verticalAlign=top;resizable=0;rotatable=0;part=1;" parent="T1z2pmbtqpx1YtOUBb7M-9" vertex="1">
          <mxGeometry y="30" width="160" height="90" as="geometry" />
        </mxCell>
        <mxCell id="T1z2pmbtqpx1YtOUBb7M-13" value="" style="edgeStyle=entityRelationEdgeStyle;fontSize=12;html=1;endArrow=ERoneToMany;rounded=0;entryX=0;entryY=0.2;entryDx=0;entryDy=0;entryPerimeter=0;" parent="1" target="T1z2pmbtqpx1YtOUBb7M-8" edge="1">
          <mxGeometry width="100" height="100" relative="1" as="geometry">
            <mxPoint x="310" y="140" as="sourcePoint" />
            <mxPoint x="410" y="40" as="targetPoint" />
          </mxGeometry>
        </mxCell>
        <mxCell id="T1z2pmbtqpx1YtOUBb7M-15" value="" style="edgeStyle=entityRelationEdgeStyle;fontSize=12;html=1;endArrow=ERmany;startArrow=ERmany;rounded=0;exitX=0.993;exitY=0.137;exitDx=0;exitDy=0;exitPerimeter=0;" parent="1" source="T1z2pmbtqpx1YtOUBb7M-9" edge="1">
          <mxGeometry width="100" height="100" relative="1" as="geometry">
            <mxPoint x="380" y="290" as="sourcePoint" />
            <mxPoint x="450" y="190" as="targetPoint" />
          </mxGeometry>
        </mxCell>
      </root>
    </mxGraphModel>
  </diagram>
  <diagram id="-YaqDVObvc64j7OIM8t-" name="Page-2">
    <mxGraphModel dx="954" dy="647" grid="1" gridSize="10" guides="1" tooltips="1" connect="1" arrows="1" fold="1" page="1" pageScale="1" pageWidth="850" pageHeight="1100" math="0" shadow="0">
      <root>
        <mxCell id="0" />
        <mxCell id="1" parent="0" />
      </root>
    </mxGraphModel>
  </diagram>
</mxfile>
